<?xml version="1.0" encoding="utf-8"?>
<!-- Generator: Adobe Illustrator 19.0.0, SVG Export Plug-In . SVG Version: 6.00 Build 0)  -->
<svg version="1.1" id="Warstwa_1" focusable="false"
	 xmlns="http://www.w3.org/2000/svg" xmlns:xlink="http://www.w3.org/1999/xlink" x="0px" y="0px" viewBox="-17 141 576 512"
	 style="enable-background:new -17 141 576 512;" xml:space="preserve">
<style type="text/css">
	.st0{fill:#E67A8A;}
</style>
<path class="st0" d="M281.1,365L431,418.5V637c0,8.8-7.2,16-16,16h-64c-8.8,0-16-7.2-16-16V525H175v112c0,8.8-7.2,16-16,16H95
	c-8.8,0-16-7.2-16-16V423.1c-37.2-13.2-64-48.4-64-90.1c0-17.7,14.3-32,32-32s32,14.3,32,32c0,17.7,14.3,32,32,32H281.1z M527,253
	v32c0,35.3-28.7,64-64,64h-32v35.6l-128-45.7V189c0-14.2,17.2-21.4,27.3-11.3l27.3,27.3h53.6c10.9,0,23.8,7.9,28.6,17.7L447,237h64
	C519.8,237,527,244.2,527,253z M415,253c0-8.8-7.2-16-16-16s-16,7.2-16,16s7.2,16,16,16S415,261.8,415,253z"/>
</svg>
